<svg width="22" height="22" viewBox="0 0 22 22" fill="none" xmlns="http://www.w3.org/2000/svg">
<path fill-rule="evenodd" clip-rule="evenodd" d="M8.29999 0C12.8 0 16.5 3.60001 16.5 8.20001C16.5 10.3 15.7 12.2 14.5 13.5L22 21L21.1 21.9L13.6 14.4C12.1 15.6 10.2 16.4 8.20001 16.4C3.70001 16.4 0 12.8 0 8.20001C0 3.70001 3.70001 0 8.29999 0ZM1.20001 8.20001C1.20001 12.1 4.40002 15.2 8.20001 15.2C12.1 15.2 15.2 12.1 15.2 8.20001C15.2 4.30002 12.1 1.20001 8.20001 1.20001C4.30002 1.20001 1.20001 4.40002 1.20001 8.20001Z" fill="#262626"/>
</svg>
