<svg width="192" height="21" viewBox="0 0 192 21" fill="none" xmlns="http://www.w3.org/2000/svg">
<g id="white-logo">
<g id="XMLID_234_">
<path id="XMLID_243_" d="M15.077 1.84618V12.4616C15.077 16 13.5386 17.4616 9.84625 17.4616C6.15394 17.4616 4.61548 16 4.61548 12.4616V1.38464H1.07702C0.846248 1.38464 0.615479 1.61541 0.615479 1.84618V12.6154C0.615479 18.5385 4.38471 20.6154 9.84625 20.6154C15.3078 20.6154 19.077 18.5385 19.077 12.6154V1.38464H15.5386C15.3078 1.38464 15.077 1.53849 15.077 1.84618Z" fill="white"/>
<path id="XMLID_242_" d="M66.5385 4.46157C66.8462 4.46157 67.0001 4.38464 67.077 4.15387L68.077 1.61541C68.1539 1.46157 68.077 1.38464 67.9231 1.38464H53.6154C52.3077 1.38464 51.7693 1.76926 51.7693 2.69234V19.1539C51.7693 19.9231 52.1539 20.3077 53.1539 20.3077H66.4616C66.7693 20.3077 66.9231 20.2308 67.0001 20L68.0001 17.4616C68.077 17.3077 68.0001 17.2308 67.8462 17.2308H55.6924V13.8462C55.6924 12.6923 56.3077 12.1539 58.077 12.1539H63.3847C63.6924 12.1539 63.8462 12.077 63.9231 11.8462L64.9231 9.38464C65.0001 9.2308 64.9231 9.15387 64.7693 9.15387H55.7693V4.38464H66.5385V4.46157Z" fill="white"/>
<path id="XMLID_238_" fill-rule="evenodd" clip-rule="evenodd" d="M41.3848 10.3077C42.9231 9.46155 43.5386 8 43.5386 6.15387C43.5386 2 40.1538 1.38464 36.6155 1.38464H28.5386C27.231 1.38464 26.6924 1.76929 26.6924 2.69232V19.1539C26.6924 19.9231 27.0769 20.3077 28.0769 20.3077H38C41.7693 20.3077 44.3848 18.8462 44.3848 15.077C44.4617 12.7693 43.5386 10.8462 41.3848 10.3077ZM30.6924 4.38464H36.9231C39 4.38464 39.6155 5.15387 39.6155 6.76929C39.6155 8.38464 39 9.15387 36.9231 9.15387H30.6924V4.38464ZM30.6924 17.2308H37.6924C39.9231 17.2308 40.5386 16.4616 40.5386 14.6923C40.5386 12.9231 39.9231 12.077 37.6924 12.077H33.0769C31.3079 12.077 30.6924 12.6154 30.6924 13.7693V17.2308Z" fill="white"/>
<path id="XMLID_235_" fill-rule="evenodd" clip-rule="evenodd" d="M88.6155 12.6923L92.8462 20C92.9231 20.077 92.9231 20.3077 92.7693 20.3077H89.1538C88.8462 20.3077 88.7693 20.2308 88.6155 20L84.7693 13.077H81.3076C79.5386 13.077 78.9231 13.6154 78.9231 14.7693V20.3077H75.4614C75.2307 20.3077 75 20.077 75 19.8462V2.69232C75 1.76929 75.5386 1.38464 76.8462 1.38464H84.9231C89.6155 1.38464 92.4614 2.61542 92.4614 7.23077C92.4614 10.7693 90.6924 12.1539 88.6155 12.6923ZM78.8462 10.1539H85.4617C87.9231 10.1539 88.4617 9.23077 88.4617 7.23077C88.4617 5.30774 87.9231 4.38464 85.4617 4.38464H78.8462V10.1539Z" fill="white"/>
</g>
<g id="XMLID_224_">
<path id="XMLID_232_" d="M122.308 18.6154L122.231 20.3077H108.231V1.38464H121.692L121.769 3.15387H110.154V9.69234H120.154V11.2308H110.154V18.6154H122.308Z" fill="#57AD56" stroke="#57AD56" stroke-width="0.25"/>
<g id="XMLID_229_">
<path fill-rule="evenodd" clip-rule="evenodd" d="M133.923 15.3846H145.077L147.231 20.3077H149.385L140.692 1.38464H138.462L129.692 20.3077H131.769L133.923 15.3846ZM134.615 13.7692L138.692 4.61542L139.462 2.69232H139.539L140.308 4.61542L144.308 13.7692H134.615Z" fill="#57AD56"/>
<path d="M145.077 15.3846L145.191 15.3345L145.159 15.2596H145.077V15.3846ZM133.923 15.3846V15.2596H133.841L133.809 15.3345L133.923 15.3846ZM147.231 20.3077L147.116 20.3578L147.149 20.4327H147.231V20.3077ZM149.385 20.3077V20.4327H149.58L149.498 20.2556L149.385 20.3077ZM140.692 1.38464L140.806 1.33247L140.773 1.25964H140.692V1.38464ZM138.462 1.38464V1.25964H138.382L138.348 1.33209L138.462 1.38464ZM129.692 20.3077L129.579 20.2552L129.497 20.4327H129.692V20.3077ZM131.769 20.3077V20.4327H131.851L131.884 20.3578L131.769 20.3077ZM138.692 4.61542L138.807 4.66631L138.808 4.66184L138.692 4.61542ZM134.615 13.7692L134.501 13.7184L134.423 13.8942H134.615V13.7692ZM139.462 2.69232V2.56732H139.377L139.346 2.6459L139.462 2.69232ZM139.539 2.69232L139.655 2.6459L139.623 2.56732H139.539V2.69232ZM140.308 4.61542L140.192 4.66187L140.193 4.66547L140.308 4.61542ZM144.308 13.7692V13.8942H144.499L144.422 13.7192L144.308 13.7692ZM145.077 15.2596H133.923V15.5096H145.077V15.2596ZM147.345 20.2576L145.191 15.3345L144.962 15.4347L147.116 20.3578L147.345 20.2576ZM149.385 20.1827H147.231V20.4327H149.385V20.1827ZM140.579 1.43682L149.271 20.3599L149.498 20.2556L140.806 1.33247L140.579 1.43682ZM138.462 1.50964H140.692V1.25964H138.462V1.50964ZM129.806 20.3603L138.575 1.4372L138.348 1.33209L129.579 20.2552L129.806 20.3603ZM131.769 20.1827H129.692V20.4327H131.769V20.1827ZM133.809 15.3345L131.655 20.2576L131.884 20.3578L134.038 15.4347L133.809 15.3345ZM138.578 4.56456L134.501 13.7184L134.73 13.8201L138.807 4.66627L138.578 4.56456ZM139.346 2.6459L138.576 4.56899L138.808 4.66184L139.578 2.73875L139.346 2.6459ZM139.539 2.56732H139.462V2.81732H139.539V2.56732ZM140.424 4.56899L139.655 2.6459L139.423 2.73875L140.192 4.66184L140.424 4.56899ZM144.422 13.7192L140.422 4.56537L140.193 4.66547L144.193 13.8193L144.422 13.7192ZM134.615 13.8942H144.308V13.6442H134.615V13.8942Z" fill="#57AD56"/>
</g>
<path id="XMLID_227_" d="M163.231 3.15387V20.3077H161.308V3.15387H154.231L154.308 1.38464H170.385V3.15387H163.231Z" fill="#57AD56" stroke="#57AD56" stroke-width="0.25"/>
<path id="XMLID_225_" d="M184.077 20.6923C181.462 20.6923 179.385 20.0769 177.692 19.0769L178 17.3846C179.769 18.3846 181.769 19 184.154 19C187.692 19 189.539 17.3846 189.539 15.0769C189.539 10.0769 178 12.6923 178 6.23077C178 3.46154 180.077 1 184.923 1C187.154 1 189.154 1.38462 190.769 2.15385L190.462 3.76923C188.692 3.07692 187 2.69231 185 2.69231C181.231 2.69231 179.846 4.38462 179.846 6.07692C179.846 10.8462 191.385 8.15385 191.385 14.9231C191.308 18.3077 188.846 20.6923 184.077 20.6923Z" fill="#57AD56" stroke="#57AD56" stroke-width="0.25"/>
</g>
</g>
</svg>
